<?xml version="1.0" encoding="UTF-8" standalone="no"?>
<!DOCTYPE svg PUBLIC "-//W3C//DTD SVG 1.1//EN"
 "http://www.w3.org/Graphics/SVG/1.1/DTD/svg11.dtd">
<!-- Generated by graphviz version 2.47.3 (20210619.1520)
 -->
<!-- Title: dependencies Pages: 1 -->
<svg width="579pt" height="247pt"
 viewBox="0.00 0.00 579.00 246.80" xmlns="http://www.w3.org/2000/svg" xmlns:xlink="http://www.w3.org/1999/xlink">
<g id="graph0" class="graph" transform="scale(1 1) rotate(0) translate(4 242.8)">
<title>dependencies</title>
<polygon fill="white" stroke="transparent" points="-4,4 -4,-242.8 575,-242.8 575,4 -4,4"/>
<text text-anchor="middle" x="285.5" y="-8.2" font-family="sans-serif" font-size="14.00">dependencies</text>
<g id="clust1" class="cluster">
<title>cluster_AppModule</title>
<polygon fill="none" stroke="black" stroke-dasharray="1,5" points="8,-32.8 8,-230.8 563,-230.8 563,-32.8 8,-32.8"/>
</g>
<g id="clust5" class="cluster">
<title>cluster_AppModule_imports</title>
<polygon fill="none" stroke="black" points="286,-40.8 286,-92.8 555,-92.8 555,-40.8 286,-40.8"/>
</g>
<g id="clust7" class="cluster">
<title>cluster_AppModule_bootstrap</title>
<polygon fill="none" stroke="black" points="220,-170.8 220,-222.8 344,-222.8 344,-170.8 220,-170.8"/>
</g>
<g id="clust2" class="cluster">
<title>cluster_AppModule_declarations</title>
<polygon fill="none" stroke="black" points="16,-40.8 16,-92.8 278,-92.8 278,-40.8 16,-40.8"/>
</g>
<!-- AppComponent -->
<g id="node1" class="node">
<title>AppComponent</title>
<polygon fill="#ffffb3" stroke="black" points="269.94,-84.8 164.06,-84.8 164.06,-48.8 269.94,-48.8 269.94,-84.8"/>
<text text-anchor="middle" x="217" y="-62.6" font-family="Times,serif" font-size="14.00">AppComponent</text>
</g>
<!-- AppModule -->
<g id="node3" class="node">
<title>AppModule</title>
<polygon fill="#8dd3c7" stroke="black" points="323.66,-149.8 320.66,-153.8 299.66,-153.8 296.66,-149.8 240.34,-149.8 240.34,-113.8 323.66,-113.8 323.66,-149.8"/>
<text text-anchor="middle" x="282" y="-127.6" font-family="Times,serif" font-size="14.00">AppModule</text>
</g>
<!-- AppComponent&#45;&gt;AppModule -->
<g id="edge1" class="edge">
<title>AppComponent&#45;&gt;AppModule</title>
<path fill="none" stroke="black" d="M254.95,-84.91C254.95,-84.91 254.95,-103.79 254.95,-103.79"/>
<polygon fill="black" stroke="black" points="251.45,-103.79 254.95,-113.79 258.45,-103.79 251.45,-103.79"/>
</g>
<!-- HeaderComponent -->
<g id="node2" class="node">
<title>HeaderComponent</title>
<polygon fill="#ffffb3" stroke="black" points="145.74,-84.8 24.26,-84.8 24.26,-48.8 145.74,-48.8 145.74,-84.8"/>
<text text-anchor="middle" x="85" y="-62.6" font-family="Times,serif" font-size="14.00">HeaderComponent</text>
</g>
<!-- HeaderComponent&#45;&gt;AppModule -->
<g id="edge2" class="edge">
<title>HeaderComponent&#45;&gt;AppModule</title>
<path fill="none" stroke="black" d="M85,-84.91C85,-104.14 85,-131.8 85,-131.8 85,-131.8 230.22,-131.8 230.22,-131.8"/>
<polygon fill="black" stroke="black" points="230.22,-135.3 240.22,-131.8 230.22,-128.3 230.22,-135.3"/>
</g>
<!-- AppComponent  -->
<g id="node6" class="node">
<title>AppComponent </title>
<polygon fill="#80b1d3" stroke="black" points="336.44,-214.8 227.56,-214.8 227.56,-178.8 336.44,-178.8 336.44,-214.8"/>
<text text-anchor="middle" x="282" y="-192.6" font-family="Times,serif" font-size="14.00">AppComponent </text>
</g>
<!-- AppModule&#45;&gt;AppComponent  -->
<g id="edge5" class="edge">
<title>AppModule&#45;&gt;AppComponent </title>
<path fill="none" stroke="black" stroke-dasharray="1,5" d="M282,-149.91C282,-149.91 282,-168.79 282,-168.79"/>
<polygon fill="black" stroke="black" points="278.5,-168.79 282,-178.79 285.5,-168.79 278.5,-168.79"/>
</g>
<!-- AppRoutingModule -->
<g id="node4" class="node">
<title>AppRoutingModule</title>
<polygon fill="#8dd3c7" stroke="black" points="547.27,-84.8 544.27,-88.8 523.27,-88.8 520.27,-84.8 418.73,-84.8 418.73,-48.8 547.27,-48.8 547.27,-84.8"/>
<text text-anchor="middle" x="483" y="-62.6" font-family="Times,serif" font-size="14.00">AppRoutingModule</text>
</g>
<!-- AppRoutingModule&#45;&gt;AppModule -->
<g id="edge3" class="edge">
<title>AppRoutingModule&#45;&gt;AppModule</title>
<path fill="none" stroke="black" d="M483,-84.91C483,-104.14 483,-131.8 483,-131.8 483,-131.8 334.14,-131.8 334.14,-131.8"/>
<polygon fill="black" stroke="black" points="334.14,-128.3 324.14,-131.8 334.14,-135.3 334.14,-128.3"/>
</g>
<!-- MaterialModule -->
<g id="node5" class="node">
<title>MaterialModule</title>
<polygon fill="#8dd3c7" stroke="black" points="400.47,-84.8 397.47,-88.8 376.47,-88.8 373.47,-84.8 293.53,-84.8 293.53,-48.8 400.47,-48.8 400.47,-84.8"/>
<text text-anchor="middle" x="347" y="-62.6" font-family="Times,serif" font-size="14.00">MaterialModule</text>
</g>
<!-- MaterialModule&#45;&gt;AppModule -->
<g id="edge4" class="edge">
<title>MaterialModule&#45;&gt;AppModule</title>
<path fill="none" stroke="black" d="M308.67,-84.91C308.67,-84.91 308.67,-103.79 308.67,-103.79"/>
<polygon fill="black" stroke="black" points="305.17,-103.79 308.67,-113.79 312.17,-103.79 305.17,-103.79"/>
</g>
</g>
</svg>
